<svg xmlns="http://www.w3.org/2000/svg" viewBox="210 0 400 400">
<path fill="#000" d="M537.16 390.55l-17.86-18.61c-5.5-5.71-6.48-15.8-2.25-22.52 22.38-34.17 53.42-81.84 53.42-81.84v-.05l4-6c8.56-13.11 6.48-33.9-4.66-46.66l-14.47-16.59c-5.51-6.32-12.43-9.89-19.49-10.05-7.06-.16-13.59 3.19-18.1 9.46l-62 86.25a11.93 11.93 0 01-9.3 5.22 13.32 13.32 0 01-10.24-4.41l-21.67-22.55c-6.15-6.42-7-17.06-2-23.66L478 153.1c4.77-6.22 6.92-14.65 6.07-23.76a43.57 43.57 0 00-10.45-24.62l-16-18.3c-5.99-6.94-13.68-11.18-21.62-11.92a23.34 23.34 0 00-20.48 8.26L408 91.64l-19.2 22.58-44.66 52.5c-5.5 6.48-15.4 6.2-22.07-.72l-21.87-22.77a20.26 20.26 0 01-5.6-12.55 16 16 0 013.81-12L372 37.86l25.79-28.34A43.14 43.14 0 01410.29 0c-.14.08-.31.12-.46.21a27.81 27.81 0 00-3.73 2.12h-.08a.53.53 0 01-.1.06C389.46 13.76 307.74 69.93 282.2 87.5a37.79 37.79 0 00-3.2 2.42 40.37 40.37 0 00-6.28 5.35l-22.1 23.39L188.75 184a12.56 12.56 0 00-3.28 9.4 14.54 14.54 0 004.42 9.55l17.54 17.07a12.86 12.86 0 0014.57 2.75c3.16-1.25 18.47-8.07 37.13-16.45l-44.64 50.31c-20 22.54-17.85 58.82 4.89 79.86l48.37 44.91a47.39 47.39 0 0027.89 12.6c.89.11 3.93.21 4.37.21h242.9c1.15 0 2.2 0 3.16-.06a11 11 0 01-8.91-3.62m-32.1-54.31l-21.9 32.84c-9.46 14.17-23.24 23-39 24.8-16 1.78-31.94-4.06-44.71-16.56l-60.22-59.07c-28.5-27.95-31.93-75.61-7.82-104.56l70.67-84.85 26.31-31.6a10.6 10.6 0 019.25-3.83 15 15 0 019.91 5.34l16.18 18.37a20 20 0 014.81 11.29 15.38 15.38 0 01-2.81 10.86L399 224.42c-11.39 14.54-9.47 38.24 4.3 52.41l22 22.62c6.47 6.64 14.55 10 22.75 9.56 8.2-.44 15.29-4.64 20.29-11.73l61-86.47a9.76 9.76 0 018.17-4.38 12.26 12.26 0 018.93 4.49l14.65 16.65c5.14 5.84 6.1 15.39 2.12 21.36l-58 87.09a2.25 2.25 0 01-.11.22"/>
</svg>
