<svg xmlns="http://www.w3.org/2000/svg" viewBox="0 0 600 599.9945068"><path fill="#0d181c" d="M0 0h600v412.911H0z"/><path d="M599.48 599.36l-.236-158.62h-26.899c-2.804 3.736-.908 20.55-9.433 23.77-28.817-6.462-2.558-9.748-12.451-23.77-1.234.068-12.99-.01-14.234 0 1.357.18 6.37 5.822-1.156 12.283-10.084 66.484 8.469 93.584-.92 146.293l65.328.044zm-429.077-109.5c10.802-5.081 10.87-16.366 11.374-23.758-3.276-3.657-16.074-3.892-21.2-2.961-7.1 5.956-.931 16.567-5.171 23.466 2.804 5.979 10.297 1.795 14.997 3.252zm108.785-49.232h-29.164c-9.49 2.67-2.457 27.224-12.294 28.84-2.692-6.709-1.885-14.706-9.602-28.672h-15.76c1.2 10.522-.415 11.038-1.268 12.081-5.406.292-4.868-8.222-11.677-3.701-5.956-1.077-7.571 8.536-13.841 6.685-2.132-5.104-8.133-11.722-14.672-7.762 5.687 12.294 34.234 17.341 20.673 37.566-2.748 5.877-.561 14.391-7.875 17.352-12.798-3.477-24.733-8.267-37.51-11.475 1.369 4.801-2.176 11.475-.84 16.288 13.617 1.817 17.689 15.961 29.343 20.224 2.48 1.873 3.545 3.982 3.04 6.943-8.189 3.466-16.893-3.746-24.476-6.943-1.918.774-.875 2.67-1.11 3.982 7.055 8.3 29.882 4.8 22.546 22.097-6.248 14.168-4.88 37.61-26.326 39.507-1.94 4.24 3.23 3.926 4.89 5.822 18.43 1.861 37.499-15.749 52.967-1.066 5.16 0 11.688-3.242 15.783.953h46.326c8.738-16.87 1.985-27.66 2.804-43.13 1.032-3.925-10.835-7.907-19.81-5.765-1.614-1.077-.56-3.219-.795-5.048 5.967-6.943 29.87 3.444 24.441-13.37 0-1.312 0-4.532-2.994-4.79-7.594.258-14.145 11.217-20.651 6.663 3.814-10.656 12.215-19.427 15.771-29.837 6.237-14.156 16.433-45.048 12.08-63.444zm-52.44 19.832l-1.312 16.657c-.662 2.614-2.659 7.807-7.336 5.844-5.665 1.347-2.703-5.563-3.343-8.11 5.003-4.262 6.36-13.427 11.991-14.391zm.146 48.424c-4.655 3.186-12.473 2.098-17.69 1.032 1.358-2.086 1.672-4.543 1.896-6.899 3.32-2.68 6.82-8.525 12.799-6.674 2.445 3.444 3.533 7.729 2.995 12.54zm-21.75-46.383c.55-6.113 7.886-3.712 11.958-5.586l.818 2.636c-3.825 2.95-6.528 9.355-12.776 6.932v-3.982zm-.807 66.63c7.324 1.593 15.232-3.982 20.616 1.85-2.411 5.093-2.411 13.584-10.858 8.783-3.757-2.927-12.226-1.615-11.643-8.783l1.885-1.85zm-8.952-71.42c1.324-2.119 3.253-6.146 7.067-4.834-.325 3.197-1.94 9.097-7.067 6.674v-1.84zm-5.72 63.747c4.71-2.737 11.262-2.31 10.185 6.753h-7.628c-1.458-1.829-3.657-3.646-2.557-6.753zm-38.587-23.22c7.897 2.098 14.941 6.08 22.793 8.761v2.917h-4.05c-5.709-2.086-18.216-5.026-18.743-11.677zm20.583 19.765c1.425-2.39 4.274-.964 6.327-1.357.74 5.866 9.882-1.39 6.36 6.26h-1.032c-3.87 2.03-10.23 0-11.655-4.903zm10.937 66.024c-6.775-11.711 1.11-31.217 2.984-42.378 1.592-1.593 3.253-3.758 6-2.905 1.885 6.124-7.1 10.106-1.087 15.39 6.214-1.84 14.38 3.757 20.605-1.032-3.253-5.317-10.05-2.648-14.649-4.79v-2.906l13.887-.841c2.165 2.95 11.99 5.732 9.815 11.34-9.255 13.058-25.06 20.663-37.555 28.122zm62.617-15.134c-.807-2.126-1.882-4.129-3.191-5.763-3.5 1.671-6.832 3.455-9.961 5.429l3.197.92c2.926.594 6.895.718 9.956-.571 2.564 6.391 2.865 14.27-.195 19.258l-31.498 1.1v-4.028c5.53-7.268 11.644-12.428 18.53-16.68l-6.303-1.794c-9.007-6.136 12.16-14.964 15.434-17.364l8.503 13.617c-.247 3.072-2.073 4.867-4.472 5.876zm7.938-60.638c-9.456 3.815-14.335-5.44-20.247-11.474-6.517-17.286 17.005-24.319 26.069-34.874l12.17 6.775c-1.323 11.811-22.883 13.999-21.57 26.787 2.254 1.917 4.217 5.125 7.145 5.754 1.02 3.174-1.638 5.115-3.567 7.032zm-146.956-27.167c7.404-.056 15.29.18 23.792.965v-23.859c-35.95-2.3-61.324 1.043-84.43-.36-29.053-1.86-44.622 1.112-45.026 1v23.028h5.44c6.528 1.963 10.982 2.086 17.555 2.086 24.363 2.49 44.89-1.088 69.074-2.4-2.737-.807-5.496-1.48-7.986-1.313-4.106-3.106-6.697-5.114-5.72-10.027 6.404-6.832 18.148-1.19 25.664-5.261 6.651 2.558 2.22 9.804 3.791 14.29-.65 1.256-1.38 1.156-2.154 1.851zm187.944-14.02c4.554-.046 8.996.257 13.023 2.175v2.906c-4.251-1.044-8.592-1.594-13.023-1.84V515.3h5.743c.326 1.066 1.346 1.638 1.122 2.939l-1.122 2.154h-5.743v5.474c1.918.1 3.994.628 5.743.123.09.247.191.505.37.73 2.704.504 4.61 4.082 7.965 2.198v2.905h-6.035c-1.178 0-2.636-.337-3.545-1.414-1.424.561-2.95.797-4.498.584v4.127c4.554-1.682 10.522.236 14.908.45.504 1.087 1.525 1.626 1.189 2.96l-1.19 2.11c-4.553-1.65-10.173-.786-14.907-1.257v34.818c1.638.314 3.264.774 4.554 1.088.483 1.324 1.862 2.12 1.862 3.701-1.76 1.055-4.094 1.313-6.416.864v19.462h60.393v-19.462c-2.31.449-8.054.718-9.815-.336 0-1.615 6.024-13.82 7.672-14.134l2.143-26.001c-4.745.471-10.309-.392-14.885 1.256l-1.178-2.108c-.314-1.335.696-1.874 1.178-2.961 4.42-.214 10.387-2.132 14.885-.45v-4.127c-2.48.302-5.104-.359-6.887-2.075-.18-1.357.84-1.885 1.2-2.928 1.738.505 3.78-.022 5.687-.123v-5.474h-5.687l-1.2-2.154c-.18-1.301.84-1.873 1.2-2.939h5.687V470.31c-4.386.246-8.794.796-13.012 1.84v-2.906c4.038-1.918 8.514-2.221 13.012-2.176v-8.862c-10.735-.605-21.402-1.727-31.509-2.568-2.557-1.357-6.27-1.055-7.998-3.736.685-1.861 1.896-2.131 3.096-2.131 11.7 2.905 23.994 4.308 36.41 4.812V440.73H302.52c-.056 10.96-8.379 26.338-8.379 26.338zm2.558 89.825v-2.905h10.376v2.905h-10.376zm8.065 21.447v-6.371c4.083-1.907 8.816 3.836 12.26-5.104 5.597.662 10.174-7.594 15.94-4.476v7.022c-9.344 3.23-18.004 13.404-28.2 8.93zm17.779-28.682c.538-6.292 5.44-5.855 8.054-6.798v8.155c-2.614-.437-6.091 1.347-8.054-1.357zm19.506 40.437c-3.578 8.369-10.196 2.277-14.773 0-3.78-1.525-6.808 9.523-10.353 1.515-.168-1.918.853-2.67 1.2-4.195 8.312-5.72 16.95-1.122 23.926 2.68zm8.559-107.044v8.985c-4.184-.493-9.232 1.368-12.866-1.447 1.806-6.529 8.682-6.113 12.866-7.538zm-17.061 38.553h-15.132v-5.575h15.132v5.575zm-3.78-35.85c-2.715 2.435-4.745-3.892-7.303-4.666l2.906-3.04c2.176 1.593 6.786 1.716 4.397 7.706zm-4.768-19.124l-4.408 4.935c-1.727 0-4.823-5.283-5.328-7.403 1.38-1.593 9.04.605 9.736 2.468zm-9.287 39.08c-5.228 1.346-11.902 2.4-16.658-.74 2.4-5.374 8.189-2.177 12.216-2.995 1.39 1.884 4.262-.258 4.442 3.735zm-1.279-17.151c-3.242 2.535-7.762 3.712-11.509 4.139l-2.254-7.504c4.296-.37 12.136-2.49 13.763 3.365zm-4.846-8.727h-7.964v-2.905h7.964v2.905zM50.393 450.5c25.653 0 53.853-2.333 79.876-.325v-9.77H.275c-.135 4.06 0 10.41 0 10.41 16.265-2.682 36.489-.315 50.118-.315zM30.44 497.7c-7.28 0-15.188-7.1-22.49-9.455H4.305l-3.645.796-.157 110.287H130.43V487.762c-33.91-3.903-63.478 12.53-99.99 9.938zm470.468-57.308c-3.063-.437-5.643.853-8.066 2.872 4.88 3.489 8.593 8.693 9.412 14.627-6.529 14.392-20.09-3.197-29.344 1.615v11.7c-3.825 3.196-6.551 7.459-11.935 5.844-3.298-3.725-7.639-6.371-6.024-11.666 3.32-6.932 10.88-4.274 15.783-7.493a4.956 4.956 0 0 1-.303-.505c-9.3-2.266-8.076-16.758-23.78-16.758h-30.006c-13.92 4.296-31.071 12.249-47.123.101l3.029 19.776 1.996 6.752-.056 5.9 7.067 6.158-7.347 6.282 2.49 15.222c5.553 1.649 11.531 1.918 11.8 7.01-1.02 8.301-7.257 17.813-7.481 26.406-.37 10.622 5.54 54.48 5.373 65.08 5.732-.527 33.157-1.637 38.766-4.486.033.202 7.639 4.25 7.639 4.487 9.747.93 22.479 3.353 19.315-13.55l-7.055-44.936c-8.368-23.018 7.055-28.75 12.204-29.019l4.05 3.69c-1.425 4.577-2.177 8.963-2.57 13.203 1.021 1.716 1.863 3.533 1.302 6.416.348 2.703-.382 4.307-1.391 5.407 1.615 20.853 11.587 39.013 11.778 58.934l26.27-.145 9.568-7.46-2.008-18.497 1.1-17.442-.595-32.485c4.038.931 8.01 2.053 12.53 3.803l1.884-2.087c-7.594-18.418 9.725-79.72-18.272-84.756zm-112.126 33.54c-5.227-4.465-8.447-9.614-7.157-16.635 3.287-7.684 14.325-5.127 18.89-1.919 3.51 5.138 9.804 11.228.146 13.91.964 12.394-8.043 10.431-11.88 4.643zm29.456 102.5v-9.893l-7.493-7.078-3.152-10.622c-3.668-16.22.527-35.053 3.455-41.155-.124.1-.157.146-.28.19-2.738-.83-7.067 1.593-8.716-1.85 2.467-4.017-1.044-10.163 3.017-13.596 2.961-.549 10.365-.403 12.26 1.728-.202 3.309-.336 8.009-3.331 11.318 3.118-.64 6.54-.1 8.973 2.356-.773 31.037 2.221 52.024 4.757 80.493l-9.49-11.89zm7.605-99.057c-3.69-1.963-8.368-9.131-5.911-15.143 2.467-2.456 4.509-5.63 9.018-4.397 2.423 3.97 9.423 5.99 7.403 11.632 1.604 6.416-7.2 7.55-10.51 7.908zm26.45 14.504c-1.133 4.532-6.786 9.837-13.853 8.49-3.545-2.68-2.356-7.76-3.175-11.485.82-2.67 8.637-4.79 11.924-3.971 1.346 1.85 6.158 4.296 5.104 6.966zm11.015 8.357c1.615-2.154 7.347-5.183 10.376-4.656 3.241 1.324 5.418 7.482 4.083 11.744-.292 3.456-4.083 2.648-6.82 2.648-3.803-1.335-8.75-5.216-7.639-9.736zm19.394 71.115c-3.23 3.646-2.31 19.944-10.14 11.486-8.357-21.94 2.95-37.06 4.846-56.567 4.857-5.317 10.23-7.28 13.292-5.923.752.158 4.823 9.928 5.508 10.073.92 13.427-7.213 14.089.639 36.344-2.12 3.645-11.666 1.783-14.145 4.587zm18.396-57.913c-2.961-.27-9.646-.91-10.207-5.183-.696-4.632-.954-11.093 9.355-9.209 7.672 1.986 10.723 12.597.852 14.392z" fill="#003f79"/><path d="M182.913 306.932c-3.41-2.95-7.168-4.543-14.784-5.676l-8.861-1.368c-4.207-.684-8.402-2.277-10.903-4.431-2.502-2.165-3.646-5.34-3.646-9.322 0-8.973 6.248-14.996 17.05-14.996 8.525 0 13.864 2.377 18.867 6.931l5.575-5.563c-6.943-6.26-13.752-8.873-24.106-8.873-16.018 0-25.9 9.097-25.9 22.85 0 6.472 2.042 11.463 6.125 15.108 3.533 3.074 8.536 5.115 14.896 6.136l9.434 1.481c5.911.908 7.952 1.593 10.566 3.859 2.614 2.277 3.859 5.911 3.859 10.118 0 9.433-7.269 14.997-19.092 14.997-9.085 0-15.345-2.154-22.041-8.862l-5.912 5.912c7.617 7.616 15.57 10.678 27.729 10.678 16.826 0 27.953-8.75 27.953-22.95 0-6.696-2.378-12.271-6.809-16.03zm57.499 16.826c0 9.759-5.575 14.874-13.977 14.874-8.401 0-13.64-5.003-13.64-14.874v-34.436h-8.177v35.67c0 6.483 1.694 11.834 5.676 15.692 3.421 3.41 8.413 5.228 14.436 5.228 6.248 0 11.823-2.39 15.794-6.932v6.247h8.065v-55.905h-8.177v34.436zm60.798-27.964c-4.543-5.788-9.658-7.157-15.793-7.157-5.687 0-10.69 1.93-13.64 4.891-5.687 5.676-6.82 14.997-6.82 23.747 0 8.749 1.133 18.07 6.82 23.745 2.95 2.962 7.953 4.892 13.64 4.892 6.135 0 11.363-1.481 15.906-7.392v6.707h8.076v-80.908h-8.189v31.475zm-13.976 42.838c-12.16 0-14.1-10.455-14.1-21.357 0-10.915 1.94-21.37 14.1-21.37s13.976 10.455 13.976 21.37c0 10.902-1.817 21.357-13.976 21.357zm73.075-74.325H330.19v80.92h8.626v-33.303h21.492c14.783 0 25.002-9.31 25.002-23.859s-10.219-23.758-25.002-23.758zm-.797 39.888h-20.695v-32.159h20.695c10.118 0 17.162 5.34 17.162 16.03s-7.044 16.13-17.162 16.13zm57.157-15.558c-9.086 0-14.773 1.817-19.765 8.29l5.564 5.115c3.298-4.655 6.943-6.36 14.088-6.36 10.23 0 14.325 4.094 14.325 12.27v5.34h-16.815c-12.507 0-19.327 6.36-19.327 16.142 0 4.43 1.48 8.637 4.207 11.363 3.522 3.634 8.065 5.115 15.804 5.115 7.493 0 11.588-1.481 16.13-6.024v5.339h8.178v-37.958c0-12.148-7.381-18.632-22.39-18.632zm14.212 36.815c0 4.666-.909 7.851-2.838 9.657-3.522 3.41-7.729 3.758-12.507 3.758-8.862 0-12.844-3.073-12.844-9.546 0-6.472 4.094-9.893 12.507-9.893h15.682v6.024zm35.113-29.322v-6.808h-8.177v55.917h8.177v-34.325c0-8.536 5.227-15.008 13.416-15.008 4.318 0 6.596 1.02 9.658 4.094l6.023-6.136c-3.982-3.982-8.076-5.226-13.404-5.226-6.483 0-12.62 2.838-15.693 7.492zm38.526 49.097h8.189V289.32h-8.189v55.906zm-.448-71.823h9.198v-9.22h-9.198v9.22zm51.94 40.348l-8.985-.797c-7.055-.571-9.78-3.41-9.78-8.177 0-5.687 4.318-9.209 12.506-9.209 5.8 0 10.914 1.358 14.885 4.431l5.34-5.34c-4.992-4.094-12.16-6.023-20.113-6.023-11.935 0-20.572 6.136-20.572 16.366 0 9.209 5.8 14.088 16.714 15.008l9.198.785c6.472.572 9.321 3.298 9.321 8.189 0 6.584-5.676 9.882-14.885 9.882-6.932 0-12.956-1.817-17.386-6.472l-5.463 5.45c6.136 5.901 13.528 8.066 22.961 8.066 13.528 0 22.726-6.247 22.726-17.039 0-10.454-6.697-14.211-16.467-15.12zm-466.77-149.77H29.107c-2.86 0-5.35 1.963-5.35 5.003v1.963c0 3.029 2.49 4.991 5.518 4.991h23.388v67.28c0 3.029 2.322 5.351 5.35 5.351h2.49c2.861 0 5.362-2.322 5.362-5.35v-67.28h23.556c2.86 0 5.362-1.963 5.362-4.992v-1.963c0-3.04-2.501-5.003-5.541-5.003zm81.733 79.597v-1.963c0-3.03-2.322-4.992-5.35-4.992h-46.753V212.53h40.684c3.04 0 5.35-1.952 5.35-4.992v-1.963c0-3.04-2.31-5.002-5.35-5.002h-40.684V175.95h44.25c3.04 0 5.363-1.963 5.363-4.992v-1.973c0-3.03-2.322-4.992-5.362-4.992H110.84c-2.86 0-5.182 1.963-5.182 4.992v74.593c0 2.86 2.142 5.002 4.991 5.002h54.975c3.029 0 5.35-1.963 5.35-5.002zm74.422 0v-1.963c0-3.03-2.334-4.992-5.362-4.992h-42.3v-67.28c0-3.028-2.49-5.35-5.35-5.35h-2.49c-3.04 0-5.362 2.322-5.362 5.35v79.237h55.502c3.028 0 5.362-1.963 5.362-5.002zm68.694-6.955h-46.753V212.53h40.684c3.04 0 5.362-1.952 5.362-4.992v-1.963c0-3.04-2.322-5.002-5.362-5.002h-40.684V175.95h44.251c3.04 0 5.362-1.963 5.362-4.992v-1.973c0-3.03-2.322-4.992-5.362-4.992h-52.282c-2.85 0-5.171 1.963-5.171 4.992v74.593c0 2.86 2.142 5.002 4.991 5.002h54.964c3.028 0 5.362-1.963 5.362-5.002v-1.963c0-3.03-2.334-4.992-5.362-4.992zm73.52 0h-29.433c-6.618 0-11.957-2.681-11.957-11.06V187.55c0-6.606 3.197-11.598 11.767-11.598h27.493c3.017 0 5.35-1.963 5.35-4.992v-1.973c0-3.03-2.333-4.992-5.35-4.992h-32.126c-11.071 0-20.348 8.917-20.348 19.81v44.43c0 10.88 8.559 20.347 19.63 20.347h34.975c3.028 0 5.362-1.963 5.362-5.002v-1.963c0-3.03-2.334-4.992-5.362-4.992zm86.733-8.031v-44.97c0-10.891-9.467-19.63-20.527-19.63h-27.661c-11.06 0-20.516 8.739-20.516 19.63v44.97c0 10.88 8.738 19.988 19.798 19.988h29.097c10.88 0 19.81-9.108 19.81-19.988zm-13.213-1.795a9.785 9.785 0 0 1-9.815 9.826h-22.838c-5.35 0-9.636-4.285-9.636-9.826v-41.032c0-5.361 4.285-9.815 9.815-9.815h22.659c5.361 0 9.815 4.454 9.815 9.815v41.032zm69.958-11.048h1.784c2.68 0 4.105-1.796 5.71-3.938l17.845-24.98v56.388c0 3.04 2.502 5.361 5.35 5.361h2.502c3.029 0 5.362-2.321 5.362-5.361v-74.234c0-2.85-1.974-4.992-5.003-4.992h-3.219c-2.31 0-4.094 2.142-5.34 3.926l-24.094 33.73-23.914-33.73c-1.257-1.784-3.22-3.926-5.542-3.926h-3.208c-3.04 0-4.991 2.142-4.991 4.992v74.234c0 3.04 2.322 5.361 5.34 5.361h2.512c2.849 0 5.35-2.321 5.35-5.361v-56.388l17.847 24.98c1.604 2.142 3.04 3.938 5.71 3.938z" fill="#fff"/></svg>