<svg xmlns="http://www.w3.org/2000/svg" viewBox="0 -250 2000 2000">
<path fill="#000" d="M1965.1,704.3c-50.1-418-372.9-596.1-520.6-656.2c-39-16-79.6-28-121.1-35c-578.6-96-847.1,366-881.2,429.8
	c-2.1,4-0.8,9,3.2,11.3l58.1,34.5c3.7,2.2,5.2,6.9,3.4,10.8c-222.7,488.3,79.3,825.5,199.4,934.1c24.5,22,51.1,42,79.6,59.1
	c516.1,310.3,925-70.6,925-70.6C2063.2,1105.8,1965.1,704.3,1965.1,704.3L1965.1,704.3z M669.7,787.9
	c-63.6,125.6-49.1,239.8-54.1,269.3c-4.7,27.7-22.2,3.4-24.3,0.3c-0.1-0.2-0.2-0.4-0.4-0.6c-36.1-61.6-28-203.6-27.4-213
	c0-0.3,0.1-0.6,0.1-1c13.1-73.6,54.1-185.8,89.5-221.3c36-36,60.6-89.6,195.7-155.2c135.6-65.1,272.3-55.6,401.4,0
	s226.7,197.2,236.8,256.3c9,52.4-24.2,16.2-31.2,8c-0.7-0.8-1.2-1.6-1.5-2.6c-1.6-4.6-14.1-25.8-108.9-100.1
	c-111.1-86.6-259.3-111.1-373.4-81.6C856.9,575.7,733.3,662.3,669.7,787.9z M1350,1090.4c-143.5,154.4-283.2,41.6-288.7,37.1
	c-0.1-0.1-0.2-0.2-0.4-0.3c-140.8-102.1-64.8-259.5-58.7-271.4c0.2-0.5,0.5-0.9,0.8-1.3c94.5-123.5,191.8-108.5,242.3-88
	c21,8.5,39.5,22,55.1,38.5c92.6,101.6,27.7,205.5,7.8,232.5c-2.8,3.8-2,9.1,1.8,11.9l38.8,28.3
	C1352.9,1080.7,1353.5,1086.6,1350,1090.4z M1813.5,1040.7c0,0-156.7,479.5-665.7,427.5c0,0-335.6-49-391.4-404.1
	c0-0.2-0.1-0.5-0.1-0.7c-2.1-8.4-43.8-186.1,164.5-345.3c0.2-0.2,0.5-0.3,0.7-0.5c2.2-1.3,12-6.4,7.6,12.3c-5,21-66.1,39-90.6,219.2
	s127.1,287.3,166.2,314.3c39,27,285.3,124.6,470-55.1c180.3-175.4,154.5-401.4,153.2-412.1c0-0.3-0.1-0.5-0.1-0.8
	c-0.3-10.1-8.7-215.6-215.2-384c-208.2-169.8-464.8-119.4-473.3-117.7c-0.1,0-0.3,0.1-0.4,0.1c-5.3,0.8-110.1,17.3-269.6,121.6
	c-1.5,1-3.5,2.5-4.5,4c-3,4.5-12.5,14.5-29.5,7.5c-17-7-13.5-10,8.5-32.5c20.3-20.8,32.1-33.9,33.8-35.8c0.1-0.2,0.3-0.3,0.4-0.5
	c8.1-10.5,292-372.8,794.2-143.4c12.5,5.5,24,12,35.5,19.5C1601.7,292.9,1970.6,560.2,1813.5,1040.7L1813.5,1040.7z"/>
</svg>
